<?xml version="1.0" encoding="UTF-8" standalone="no"?><svg xmlns="http://www.w3.org/2000/svg" xmlns:xlink="http://www.w3.org/1999/xlink" contentScriptType="application/ecmascript" contentStyleType="text/css" height="1606px" preserveAspectRatio="none" style="width:1217px;height:1606px;" version="1.1" viewBox="0 0 1217 1606" width="1217px" zoomAndPan="magnify"><defs><filter height="300%" id="fjw7vi0" width="300%" x="-1" y="-1"><feGaussianBlur result="blurOut" stdDeviation="2.0"/><feColorMatrix in="blurOut" result="blurOut2" type="matrix" values="0 0 0 0 0 0 0 0 0 0 0 0 0 0 0 0 0 0 .4 0"/><feOffset dx="4.0" dy="4.0" in="blurOut2" result="blurOut3"/><feBlend in="SourceGraphic" in2="blurOut3" mode="normal"/></filter></defs><g><polygon fill="#D3D3D3" filter="url(#fjw7vi0)" points="677,116.3877,886,116.3877,898,128.3877,886,140.3877,677,140.3877,665,128.3877,677,116.3877" style="stroke: #A80036; stroke-width: 1.5;"/><text fill="#000000" font-family="sans-serif" font-size="11" lengthAdjust="spacingAndGlyphs" textLength="209" x="677" y="132.5449">there is no definition error on the class</text><text fill="#000000" font-family="sans-serif" font-size="11" lengthAdjust="spacingAndGlyphs" textLength="18" x="647" y="126.0674">yes</text><text fill="#000000" font-family="sans-serif" font-size="11" lengthAdjust="spacingAndGlyphs" textLength="14" x="898" y="126.0674">no</text><rect fill="#FEFECE" filter="url(#fjw7vi0)" height="34.1328" rx="12.5" ry="12.5" style="stroke: #A80036; stroke-width: 1.5;" width="213" x="389" y="206.5225"/><text fill="#000000" font-family="sans-serif" font-size="12" lengthAdjust="spacingAndGlyphs" textLength="21" x="399" y="228.124">Fire</text><text fill="#000000" font-family="sans-serif" font-size="12" font-weight="bold" lengthAdjust="spacingAndGlyphs" textLength="133" x="424" y="228.124">ProcessInjectionPoint</text><text fill="#000000" font-family="sans-serif" font-size="12" lengthAdjust="spacingAndGlyphs" textLength="31" x="561" y="228.124">event</text><polygon fill="#D3D3D3" filter="url(#fjw7vi0)" points="431,150.3877,560,150.3877,572,162.3877,560,174.3877,431,174.3877,419,162.3877,431,150.3877" style="stroke: #A80036; stroke-width: 1.5;"/><text fill="#000000" font-family="sans-serif" font-size="11" lengthAdjust="spacingAndGlyphs" textLength="18" x="499.5" y="185.0225">yes</text><text fill="#000000" font-family="sans-serif" font-size="11" lengthAdjust="spacingAndGlyphs" textLength="129" x="431" y="166.5449">class has injection point</text><text fill="#000000" font-family="sans-serif" font-size="11" lengthAdjust="spacingAndGlyphs" textLength="14" x="405" y="160.0674">no</text><rect fill="#FEFECE" filter="url(#fjw7vi0)" height="34.1328" rx="12.5" ry="12.5" style="stroke: #A80036; stroke-width: 1.5;" width="221" x="385" y="282.6553"/><text fill="#000000" font-family="sans-serif" font-size="12" lengthAdjust="spacingAndGlyphs" textLength="21" x="395" y="304.2568">Fire</text><text fill="#000000" font-family="sans-serif" font-size="12" font-weight="bold" lengthAdjust="spacingAndGlyphs" textLength="141" x="420" y="304.2568">ProcessInjectionTarget</text><text fill="#000000" font-family="sans-serif" font-size="12" lengthAdjust="spacingAndGlyphs" textLength="31" x="565" y="304.2568">event</text><rect fill="#FEFECE" filter="url(#fjw7vi0)" height="34.1328" rx="12.5" ry="12.5" style="stroke: #A80036; stroke-width: 1.5;" width="256" x="367.5" y="336.7881"/><text fill="#000000" font-family="sans-serif" font-size="12" lengthAdjust="spacingAndGlyphs" textLength="21" x="377.5" y="358.3896">Fire</text><text fill="#000000" font-family="sans-serif" font-size="12" font-weight="bold" lengthAdjust="spacingAndGlyphs" textLength="176" x="402.5" y="358.3896">ProcessBeanAttributes (PBA)</text><text fill="#000000" font-family="sans-serif" font-size="12" lengthAdjust="spacingAndGlyphs" textLength="31" x="582.5" y="358.3896">event</text><rect fill="#FEFECE" filter="url(#fjw7vi0)" height="34.1328" rx="12.5" ry="12.5" style="stroke: #A80036; stroke-width: 1.5;" width="157" x="417" y="439.3984"/><text fill="#000000" font-family="sans-serif" font-size="12" lengthAdjust="spacingAndGlyphs" textLength="21" x="427" y="461">Fire</text><text fill="#000000" font-family="sans-serif" font-size="12" font-weight="bold" lengthAdjust="spacingAndGlyphs" textLength="77" x="452" y="461">ProcessBean</text><text fill="#000000" font-family="sans-serif" font-size="12" lengthAdjust="spacingAndGlyphs" textLength="31" x="533" y="461">event</text><rect fill="#D3D3D3" filter="url(#fjw7vi0)" height="34.1328" rx="12.5" ry="12.5" style="stroke: #A80036; stroke-width: 1.5;" width="196" x="397.5" y="493.5313"/><text fill="#000000" font-family="sans-serif" font-size="12" lengthAdjust="spacingAndGlyphs" textLength="176" x="407.5" y="515.1328">bean is registered in container</text><rect fill="#000000" filter="url(#fjw7vi0)" height="6" rx="2.5" ry="2.5" style="stroke: #000000; stroke-width: 1.0;" width="859" x="66" y="547.6641"/><rect fill="#ADD8E6" filter="url(#fjw7vi0)" height="564.8848" style="stroke: #000000; stroke-width: 2.0;" width="476" x="80" y="564.1172"/><path d="M159,565.1172 L159,573.6055 L149,583.6055 L80,583.6055 " fill="none" style="stroke: #000000; stroke-width: 2.0;"/><text fill="#000000" font-family="sans-serif" font-size="14" lengthAdjust="spacingAndGlyphs" textLength="69" x="83" y="578.6523">Producers</text><rect fill="#FEFECE" filter="url(#fjw7vi0)" height="34.1328" rx="12.5" ry="12.5" style="stroke: #A80036; stroke-width: 1.5;" width="213" x="207" y="722.5156"/><text fill="#000000" font-family="sans-serif" font-size="12" lengthAdjust="spacingAndGlyphs" textLength="21" x="217" y="744.1172">Fire</text><text fill="#000000" font-family="sans-serif" font-size="12" font-weight="bold" lengthAdjust="spacingAndGlyphs" textLength="133" x="242" y="744.1172">ProcessInjectionPoint</text><text fill="#000000" font-family="sans-serif" font-size="12" lengthAdjust="spacingAndGlyphs" textLength="31" x="379" y="744.1172">event</text><polygon fill="#D3D3D3" filter="url(#fjw7vi0)" points="235,661.5605,392,661.5605,404,673.5605,392,685.5605,235,685.5605,223,673.5605,235,661.5605" style="stroke: #A80036; stroke-width: 1.5;"/><text fill="#000000" font-family="sans-serif" font-size="11" lengthAdjust="spacingAndGlyphs" textLength="18" x="317.5" y="696.1953">yes</text><text fill="#000000" font-family="sans-serif" font-size="11" lengthAdjust="spacingAndGlyphs" textLength="157" x="235" y="677.7178">Producer has injection points</text><text fill="#000000" font-family="sans-serif" font-size="11" lengthAdjust="spacingAndGlyphs" textLength="14" x="209" y="671.2402">no</text><rect fill="#FEFECE" filter="url(#fjw7vi0)" height="34.1328" rx="12.5" ry="12.5" style="stroke: #A80036; stroke-width: 1.5;" width="181" x="223" y="815.6484"/><text fill="#000000" font-family="sans-serif" font-size="12" lengthAdjust="spacingAndGlyphs" textLength="21" x="233" y="837.25">Fire</text><text fill="#000000" font-family="sans-serif" font-size="12" font-weight="bold" lengthAdjust="spacingAndGlyphs" textLength="101" x="258" y="837.25">ProcessProducer</text><text fill="#000000" font-family="sans-serif" font-size="12" lengthAdjust="spacingAndGlyphs" textLength="31" x="363" y="837.25">event</text><rect fill="#FEFECE" filter="url(#fjw7vi0)" height="34.1328" rx="12.5" ry="12.5" style="stroke: #A80036; stroke-width: 1.5;" width="256" x="185.5" y="884.7813"/><text fill="#000000" font-family="sans-serif" font-size="12" lengthAdjust="spacingAndGlyphs" textLength="21" x="195.5" y="906.3828">Fire</text><text fill="#000000" font-family="sans-serif" font-size="12" font-weight="bold" lengthAdjust="spacingAndGlyphs" textLength="176" x="220.5" y="906.3828">ProcessBeanAttributes (PBA)</text><text fill="#000000" font-family="sans-serif" font-size="12" lengthAdjust="spacingAndGlyphs" textLength="31" x="400.5" y="906.3828">event</text><rect fill="#FEFECE" filter="url(#fjw7vi0)" height="34.1328" rx="12.5" ry="12.5" style="stroke: #A80036; stroke-width: 1.5;" width="379" x="124" y="1002.3916"/><text fill="#000000" font-family="sans-serif" font-size="12" lengthAdjust="spacingAndGlyphs" textLength="21" x="134" y="1023.9932">Fire</text><text fill="#000000" font-family="sans-serif" font-size="12" font-weight="bold" lengthAdjust="spacingAndGlyphs" textLength="148" x="159" y="1023.9932">ProcessProducerMethod</text><text fill="#000000" font-family="sans-serif" font-size="12" lengthAdjust="spacingAndGlyphs" textLength="12" x="311" y="1023.9932">or</text><text fill="#000000" font-family="sans-serif" font-size="12" font-weight="bold" lengthAdjust="spacingAndGlyphs" textLength="131" x="327" y="1023.9932">ProcessProducerField</text><text fill="#000000" font-family="sans-serif" font-size="12" lengthAdjust="spacingAndGlyphs" textLength="31" x="462" y="1023.9932">event</text><polygon fill="#D3D3D3" filter="url(#fjw7vi0)" points="251,953.9141,376,953.9141,388,965.9141,376,977.9141,251,977.9141,239,965.9141,251,953.9141" style="stroke: #A80036; stroke-width: 1.5;"/><text fill="#000000" font-family="sans-serif" font-size="11" lengthAdjust="spacingAndGlyphs" textLength="18" x="317.5" y="988.5488">yes</text><text fill="#000000" font-family="sans-serif" font-size="11" lengthAdjust="spacingAndGlyphs" textLength="125" x="251" y="970.0713">PBA.veto() wasn't called</text><polygon fill="#D3D3D3" filter="url(#fjw7vi0)" points="313.5,1061.002,325.5,1073.002,313.5,1085.002,301.5,1073.002,313.5,1061.002" style="stroke: #A80036; stroke-width: 1.5;"/><polygon fill="#D3D3D3" filter="url(#fjw7vi0)" points="214.5,600.6055,412.5,600.6055,424.5,612.6055,412.5,624.6055,214.5,624.6055,202.5,612.6055,214.5,600.6055" style="stroke: #A80036; stroke-width: 1.5;"/><text fill="#000000" font-family="sans-serif" font-size="11" lengthAdjust="spacingAndGlyphs" textLength="18" x="317.5" y="635.2402">yes</text><text fill="#000000" font-family="sans-serif" font-size="11" lengthAdjust="spacingAndGlyphs" textLength="198" x="214.5" y="616.7627">bean has producer fields or methods</text><text fill="#000000" font-family="sans-serif" font-size="11" lengthAdjust="spacingAndGlyphs" textLength="14" x="188.5" y="610.2852">no</text><rect fill="#90EE90" filter="url(#fjw7vi0)" height="329.6641" style="stroke: #000000; stroke-width: 2.0;" width="327" x="584" y="681.7275"/><path d="M663,682.7275 L663,691.2158 L653,701.2158 L584,701.2158 " fill="none" style="stroke: #000000; stroke-width: 2.0;"/><text fill="#000000" font-family="sans-serif" font-size="14" lengthAdjust="spacingAndGlyphs" textLength="69" x="587" y="696.2627">Observers</text><rect fill="#FEFECE" filter="url(#fjw7vi0)" height="34.1328" rx="12.5" ry="12.5" style="stroke: #A80036; stroke-width: 1.5;" width="213" x="648.5" y="840.126"/><text fill="#000000" font-family="sans-serif" font-size="12" lengthAdjust="spacingAndGlyphs" textLength="21" x="658.5" y="861.7275">Fire</text><text fill="#000000" font-family="sans-serif" font-size="12" font-weight="bold" lengthAdjust="spacingAndGlyphs" textLength="133" x="683.5" y="861.7275">ProcessInjectionPoint</text><text fill="#000000" font-family="sans-serif" font-size="12" lengthAdjust="spacingAndGlyphs" textLength="31" x="820.5" y="861.7275">event</text><polygon fill="#D3D3D3" filter="url(#fjw7vi0)" points="654,779.1709,856,779.1709,868,791.1709,856,803.1709,654,803.1709,642,791.1709,654,779.1709" style="stroke: #A80036; stroke-width: 1.5;"/><text fill="#000000" font-family="sans-serif" font-size="11" lengthAdjust="spacingAndGlyphs" textLength="18" x="759" y="813.8057">yes</text><text fill="#000000" font-family="sans-serif" font-size="11" lengthAdjust="spacingAndGlyphs" textLength="202" x="654" y="795.3281">Observer method has injection points</text><text fill="#000000" font-family="sans-serif" font-size="11" lengthAdjust="spacingAndGlyphs" textLength="14" x="628" y="788.8506">no</text><rect fill="#FEFECE" filter="url(#fjw7vi0)" height="34.1328" rx="12.5" ry="12.5" style="stroke: #A80036; stroke-width: 1.5;" width="230" x="640" y="933.2588"/><text fill="#000000" font-family="sans-serif" font-size="12" lengthAdjust="spacingAndGlyphs" textLength="21" x="650" y="954.8604">Fire</text><text fill="#000000" font-family="sans-serif" font-size="12" font-weight="bold" lengthAdjust="spacingAndGlyphs" textLength="150" x="675" y="954.8604">ProcessObserverMethod</text><text fill="#000000" font-family="sans-serif" font-size="12" lengthAdjust="spacingAndGlyphs" textLength="31" x="829" y="954.8604">event</text><polygon fill="#D3D3D3" filter="url(#fjw7vi0)" points="680.5,718.2158,829.5,718.2158,841.5,730.2158,829.5,742.2158,680.5,742.2158,668.5,730.2158,680.5,718.2158" style="stroke: #A80036; stroke-width: 1.5;"/><text fill="#000000" font-family="sans-serif" font-size="11" lengthAdjust="spacingAndGlyphs" textLength="18" x="759" y="752.8506">yes</text><text fill="#000000" font-family="sans-serif" font-size="11" lengthAdjust="spacingAndGlyphs" textLength="149" x="680.5" y="734.373">bean has observer methods</text><text fill="#000000" font-family="sans-serif" font-size="11" lengthAdjust="spacingAndGlyphs" textLength="14" x="654.5" y="727.8955">no</text><rect fill="#000000" filter="url(#fjw7vi0)" height="6" rx="2.5" ry="2.5" style="stroke: #000000; stroke-width: 1.0;" width="859" x="66" y="1149.002"/><polygon fill="#D3D3D3" filter="url(#fjw7vi0)" points="433,390.9209,558,390.9209,570,402.9209,558,414.9209,433,414.9209,421,402.9209,433,390.9209" style="stroke: #A80036; stroke-width: 1.5;"/><text fill="#000000" font-family="sans-serif" font-size="11" lengthAdjust="spacingAndGlyphs" textLength="18" x="499.5" y="425.5557">yes</text><text fill="#000000" font-family="sans-serif" font-size="11" lengthAdjust="spacingAndGlyphs" textLength="125" x="433" y="407.0781">PBA.veto() wasn't called</text><text fill="#000000" font-family="sans-serif" font-size="11" lengthAdjust="spacingAndGlyphs" textLength="14" x="570" y="400.6006">no</text><polygon fill="#D3D3D3" filter="url(#fjw7vi0)" points="495.5,1175.002,507.5,1187.002,495.5,1199.002,483.5,1187.002,495.5,1175.002" style="stroke: #A80036; stroke-width: 1.5;"/><rect fill="#D3D3D3" filter="url(#fjw7vi0)" height="34.1328" rx="12.5" ry="12.5" style="stroke: #A80036; stroke-width: 1.5;" width="201" x="967" y="150.3877"/><text fill="#000000" font-family="sans-serif" font-size="12" lengthAdjust="spacingAndGlyphs" textLength="181" x="977" y="171.9893">throws a deployment exception</text><ellipse cx="1067.5" cy="224.7002" fill="none" filter="url(#fjw7vi0)" rx="10" ry="10" style="stroke: #000000; stroke-width: 1.0;"/><ellipse cx="1068" cy="225.2002" fill="#000000" filter="url(#fjw7vi0)" rx="6" ry="6" style="stroke: none; stroke-width: 1.0;"/><polygon fill="#D3D3D3" filter="url(#fjw7vi0)" points="651.5,67.9102,911.5,67.9102,923.5,79.9102,911.5,91.9102,651.5,91.9102,639.5,79.9102,651.5,67.9102" style="stroke: #A80036; stroke-width: 1.5;"/><text fill="#000000" font-family="sans-serif" font-size="11" lengthAdjust="spacingAndGlyphs" textLength="18" x="785.5" y="102.5449">yes</text><text fill="#000000" font-family="sans-serif" font-size="11" lengthAdjust="spacingAndGlyphs" textLength="260" x="651.5" y="84.0674">type metadata makes it eligible to become a bean</text><text fill="#000000" font-family="sans-serif" font-size="11" lengthAdjust="spacingAndGlyphs" textLength="14" x="923.5" y="77.5898">no</text><polygon fill="#D3D3D3" filter="url(#fjw7vi0)" points="781.5,1219.002,793.5,1231.002,781.5,1243.002,769.5,1231.002,781.5,1219.002" style="stroke: #A80036; stroke-width: 1.5;"/><polygon fill="#D3D3D3" filter="url(#fjw7vi0)" points="679.5,11.7754,883.5,11.7754,895.5,23.7754,883.5,35.7754,679.5,35.7754,667.5,23.7754,679.5,11.7754" style="stroke: #A80036; stroke-width: 1.5;"/><text fill="#000000" font-family="sans-serif" font-size="11" lengthAdjust="spacingAndGlyphs" textLength="18" x="785.5" y="46.4102">yes</text><text fill="#000000" font-family="sans-serif" font-size="11" lengthAdjust="spacingAndGlyphs" textLength="204" x="679.5" y="27.9326">type is available in discovered type set</text><text fill="#000000" font-family="sans-serif" font-size="11" lengthAdjust="spacingAndGlyphs" textLength="14" x="653.5" y="21.4551">no</text><rect fill="#FEFECE" filter="url(#fjw7vi0)" height="34.1328" rx="12.5" ry="12.5" style="stroke: #A80036; stroke-width: 1.5;" width="167" x="698" y="1285.002"/><text fill="#000000" font-family="sans-serif" font-size="12" lengthAdjust="spacingAndGlyphs" textLength="21" x="708" y="1306.6035">Fire</text><text fill="#000000" font-family="sans-serif" font-size="12" font-weight="bold" lengthAdjust="spacingAndGlyphs" textLength="122" x="733" y="1306.6035">AfterBeanDiscovery</text><rect fill="#D3D3D3" filter="url(#fjw7vi0)" height="34.1328" rx="12.5" ry="12.5" style="stroke: #A80036; stroke-width: 1.5;" width="201" x="681" y="1387.6123"/><text fill="#000000" font-family="sans-serif" font-size="12" lengthAdjust="spacingAndGlyphs" textLength="181" x="691" y="1409.2139">throws a deployment exception</text><ellipse cx="781.5" cy="1459.1787" fill="none" filter="url(#fjw7vi0)" rx="10" ry="10" style="stroke: #000000; stroke-width: 1.0;"/><ellipse cx="782" cy="1459.6787" fill="#000000" filter="url(#fjw7vi0)" rx="6" ry="6" style="stroke: none; stroke-width: 1.0;"/><polygon fill="#D3D3D3" filter="url(#fjw7vi0)" points="724,1339.1348,839,1339.1348,851,1351.1348,839,1363.1348,724,1363.1348,712,1351.1348,724,1339.1348" style="stroke: #A80036; stroke-width: 1.5;"/><text fill="#000000" font-family="sans-serif" font-size="11" lengthAdjust="spacingAndGlyphs" textLength="18" x="785.5" y="1373.7695">yes</text><text fill="#000000" font-family="sans-serif" font-size="11" lengthAdjust="spacingAndGlyphs" textLength="115" x="724" y="1355.292">Meta data is non valid</text><text fill="#000000" font-family="sans-serif" font-size="11" lengthAdjust="spacingAndGlyphs" textLength="14" x="851" y="1348.8145">no</text><rect fill="#FEFECE" filter="url(#fjw7vi0)" height="34.1328" rx="12.5" ry="12.5" style="stroke: #A80036; stroke-width: 1.5;" width="215" x="674" y="1511.1787"/><text fill="#000000" font-family="sans-serif" font-size="12" lengthAdjust="spacingAndGlyphs" textLength="21" x="684" y="1532.7803">Fire</text><text fill="#000000" font-family="sans-serif" font-size="12" font-weight="bold" lengthAdjust="spacingAndGlyphs" textLength="170" x="709" y="1532.7803">AfterDeploymentValidation</text><rect fill="#D3D3D3" filter="url(#fjw7vi0)" height="34.1328" rx="12.5" ry="12.5" style="stroke: #A80036; stroke-width: 1.5;" width="148" x="707.5" y="1565.3115"/><text fill="#000000" font-family="sans-serif" font-size="12" lengthAdjust="spacingAndGlyphs" textLength="124" x="721.5" y="1586.9131">Application is running</text><line style="stroke: #A80036; stroke-width: 1.5;" x1="495.5" x2="495.5" y1="174.3877" y2="206.5225"/><polygon fill="#A80036" points="491.5,196.5225,495.5,206.5225,499.5,196.5225,495.5,200.5225" style="stroke: #A80036; stroke-width: 1.0;"/><line style="stroke: #A80036; stroke-width: 1.5;" x1="495.5" x2="495.5" y1="240.6553" y2="250.6553"/><line style="stroke: #A80036; stroke-width: 1.5;" x1="495.5" x2="614" y1="250.6553" y2="250.6553"/><polygon fill="#A80036" points="610,215.1113,614,205.1113,618,215.1113,614,211.1113" style="stroke: #A80036; stroke-width: 1.5;"/><line style="stroke: #A80036; stroke-width: 1.5;" x1="614" x2="614" y1="162.3877" y2="250.6553"/><line style="stroke: #A80036; stroke-width: 1.5;" x1="614" x2="572" y1="162.3877" y2="162.3877"/><polygon fill="#A80036" points="582,158.3877,572,162.3877,582,166.3877,578,162.3877" style="stroke: #A80036; stroke-width: 1.0;"/><line style="stroke: #A80036; stroke-width: 1.5;" x1="419" x2="377" y1="162.3877" y2="162.3877"/><polygon fill="#A80036" points="373,201.1113,377,211.1113,381,201.1113,377,205.1113" style="stroke: #A80036; stroke-width: 1.5;"/><line style="stroke: #A80036; stroke-width: 1.5;" x1="377" x2="377" y1="162.3877" y2="262.6553"/><line style="stroke: #A80036; stroke-width: 1.5;" x1="377" x2="495.5" y1="262.6553" y2="262.6553"/><line style="stroke: #A80036; stroke-width: 1.5;" x1="495.5" x2="495.5" y1="262.6553" y2="282.6553"/><polygon fill="#A80036" points="491.5,272.6553,495.5,282.6553,499.5,272.6553,495.5,276.6553" style="stroke: #A80036; stroke-width: 1.0;"/><line style="stroke: #A80036; stroke-width: 1.5;" x1="495.5" x2="495.5" y1="316.7881" y2="336.7881"/><polygon fill="#A80036" points="491.5,326.7881,495.5,336.7881,499.5,326.7881,495.5,330.7881" style="stroke: #A80036; stroke-width: 1.0;"/><line style="stroke: #A80036; stroke-width: 1.5;" x1="495.5" x2="495.5" y1="473.5313" y2="493.5313"/><polygon fill="#A80036" points="491.5,483.5313,495.5,493.5313,499.5,483.5313,495.5,487.5313" style="stroke: #A80036; stroke-width: 1.0;"/><line style="stroke: #A80036; stroke-width: 1.5;" x1="313.5" x2="313.5" y1="685.5605" y2="722.5156"/><polygon fill="#A80036" points="309.5,712.5156,313.5,722.5156,317.5,712.5156,313.5,716.5156" style="stroke: #A80036; stroke-width: 1.0;"/><line style="stroke: #A80036; stroke-width: 1.5;" x1="313.5" x2="313.5" y1="756.6484" y2="768.6484"/><line style="stroke: #A80036; stroke-width: 1.5;" x1="313.5" x2="432" y1="768.6484" y2="768.6484"/><polygon fill="#A80036" points="428,731.1045,432,721.1045,436,731.1045,432,727.1045" style="stroke: #A80036; stroke-width: 1.5;"/><line style="stroke: #A80036; stroke-width: 1.5;" x1="432" x2="432" y1="673.5605" y2="768.6484"/><line style="stroke: #A80036; stroke-width: 1.5;" x1="432" x2="404" y1="673.5605" y2="673.5605"/><polygon fill="#A80036" points="414,669.5605,404,673.5605,414,677.5605,410,673.5605" style="stroke: #A80036; stroke-width: 1.0;"/><line style="stroke: #A80036; stroke-width: 1.5;" x1="223" x2="195" y1="673.5605" y2="673.5605"/><polygon fill="#A80036" points="191,717.1045,195,727.1045,199,717.1045,195,721.1045" style="stroke: #A80036; stroke-width: 1.5;"/><line style="stroke: #A80036; stroke-width: 1.5;" x1="195" x2="195" y1="673.5605" y2="780.6484"/><line style="stroke: #A80036; stroke-width: 1.5;" x1="195" x2="313.5" y1="780.6484" y2="780.6484"/><line style="stroke: #A80036; stroke-width: 1.5;" x1="313.5" x2="313.5" y1="780.6484" y2="815.6484"/><polygon fill="#A80036" points="309.5,805.6484,313.5,815.6484,317.5,805.6484,313.5,809.6484" style="stroke: #A80036; stroke-width: 1.0;"/><line style="stroke: #A80036; stroke-width: 1.5;" x1="313.5" x2="313.5" y1="849.7813" y2="884.7813"/><polygon fill="#A80036" points="309.5,874.7813,313.5,884.7813,317.5,874.7813,313.5,878.7813" style="stroke: #A80036; stroke-width: 1.0;"/><line style="stroke: #A80036; stroke-width: 1.5;" x1="313.5" x2="313.5" y1="977.9141" y2="1002.3916"/><polygon fill="#A80036" points="309.5,992.3916,313.5,1002.3916,317.5,992.3916,313.5,996.3916" style="stroke: #A80036; stroke-width: 1.0;"/><line style="stroke: #A80036; stroke-width: 1.5;" x1="388" x2="513" y1="965.9141" y2="965.9141"/><polygon fill="#A80036" points="509,1009.458,513,1019.458,517,1009.458,513,1013.458" style="stroke: #A80036; stroke-width: 1.5;"/><line style="stroke: #A80036; stroke-width: 1.5;" x1="513" x2="513" y1="965.9141" y2="1073.002"/><line style="stroke: #A80036; stroke-width: 1.5;" x1="513" x2="325.5" y1="1073.002" y2="1073.002"/><polygon fill="#A80036" points="335.5,1069.002,325.5,1073.002,335.5,1077.002,331.5,1073.002" style="stroke: #A80036; stroke-width: 1.0;"/><line style="stroke: #A80036; stroke-width: 1.5;" x1="313.5" x2="313.5" y1="1036.5244" y2="1061.002"/><polygon fill="#A80036" points="309.5,1051.002,313.5,1061.002,317.5,1051.002,313.5,1055.002" style="stroke: #A80036; stroke-width: 1.0;"/><line style="stroke: #A80036; stroke-width: 1.5;" x1="313.5" x2="313.5" y1="918.9141" y2="953.9141"/><polygon fill="#A80036" points="309.5,943.9141,313.5,953.9141,317.5,943.9141,313.5,947.9141" style="stroke: #A80036; stroke-width: 1.0;"/><line style="stroke: #A80036; stroke-width: 1.5;" x1="313.5" x2="313.5" y1="624.6055" y2="661.5605"/><polygon fill="#A80036" points="309.5,651.5605,313.5,661.5605,317.5,651.5605,313.5,655.5605" style="stroke: #A80036; stroke-width: 1.0;"/><line style="stroke: #A80036; stroke-width: 1.5;" x1="313.5" x2="313.5" y1="1085.002" y2="1097.002"/><line style="stroke: #A80036; stroke-width: 1.5;" x1="313.5" x2="537" y1="1097.002" y2="1097.002"/><polygon fill="#A80036" points="533,864.8037,537,854.8037,541,864.8037,537,860.8037" style="stroke: #A80036; stroke-width: 1.5;"/><line style="stroke: #A80036; stroke-width: 1.5;" x1="537" x2="537" y1="612.6055" y2="1097.002"/><line style="stroke: #A80036; stroke-width: 1.5;" x1="537" x2="424.5" y1="612.6055" y2="612.6055"/><polygon fill="#A80036" points="434.5,608.6055,424.5,612.6055,434.5,616.6055,430.5,612.6055" style="stroke: #A80036; stroke-width: 1.0;"/><line style="stroke: #A80036; stroke-width: 1.5;" x1="202.5" x2="102" y1="612.6055" y2="612.6055"/><polygon fill="#A80036" points="98,850.8037,102,860.8037,106,850.8037,102,854.8037" style="stroke: #A80036; stroke-width: 1.5;"/><line style="stroke: #A80036; stroke-width: 1.5;" x1="102" x2="102" y1="612.6055" y2="1109.002"/><line style="stroke: #A80036; stroke-width: 1.5;" x1="102" x2="313.5" y1="1109.002" y2="1109.002"/><line style="stroke: #A80036; stroke-width: 1.5;" x1="313.5" x2="313.5" y1="1109.002" y2="1149.002"/><polygon fill="#A80036" points="309.5,1139.002,313.5,1149.002,317.5,1139.002,313.5,1143.002" style="stroke: #A80036; stroke-width: 1.0;"/><line style="stroke: #A80036; stroke-width: 1.5;" x1="755" x2="755" y1="803.1709" y2="840.126"/><polygon fill="#A80036" points="751,830.126,755,840.126,759,830.126,755,834.126" style="stroke: #A80036; stroke-width: 1.0;"/><line style="stroke: #A80036; stroke-width: 1.5;" x1="755" x2="755" y1="874.2588" y2="886.2588"/><line style="stroke: #A80036; stroke-width: 1.5;" x1="755" x2="880" y1="886.2588" y2="886.2588"/><polygon fill="#A80036" points="876,848.7148,880,838.7148,884,848.7148,880,844.7148" style="stroke: #A80036; stroke-width: 1.5;"/><line style="stroke: #A80036; stroke-width: 1.5;" x1="880" x2="880" y1="791.1709" y2="886.2588"/><line style="stroke: #A80036; stroke-width: 1.5;" x1="880" x2="868" y1="791.1709" y2="791.1709"/><polygon fill="#A80036" points="878,787.1709,868,791.1709,878,795.1709,874,791.1709" style="stroke: #A80036; stroke-width: 1.0;"/><line style="stroke: #A80036; stroke-width: 1.5;" x1="642" x2="630" y1="791.1709" y2="791.1709"/><polygon fill="#A80036" points="626,834.7148,630,844.7148,634,834.7148,630,838.7148" style="stroke: #A80036; stroke-width: 1.5;"/><line style="stroke: #A80036; stroke-width: 1.5;" x1="630" x2="630" y1="791.1709" y2="898.2588"/><line style="stroke: #A80036; stroke-width: 1.5;" x1="630" x2="755" y1="898.2588" y2="898.2588"/><line style="stroke: #A80036; stroke-width: 1.5;" x1="755" x2="755" y1="898.2588" y2="933.2588"/><polygon fill="#A80036" points="751,923.2588,755,933.2588,759,923.2588,755,927.2588" style="stroke: #A80036; stroke-width: 1.0;"/><line style="stroke: #A80036; stroke-width: 1.5;" x1="755" x2="755" y1="742.2158" y2="779.1709"/><polygon fill="#A80036" points="751,769.1709,755,779.1709,759,769.1709,755,773.1709" style="stroke: #A80036; stroke-width: 1.0;"/><line style="stroke: #A80036; stroke-width: 1.5;" x1="755" x2="755" y1="967.3916" y2="979.3916"/><line style="stroke: #A80036; stroke-width: 1.5;" x1="755" x2="892" y1="979.3916" y2="979.3916"/><polygon fill="#A80036" points="888,864.8037,892,854.8037,896,864.8037,892,860.8037" style="stroke: #A80036; stroke-width: 1.5;"/><line style="stroke: #A80036; stroke-width: 1.5;" x1="892" x2="892" y1="730.2158" y2="979.3916"/><line style="stroke: #A80036; stroke-width: 1.5;" x1="892" x2="841.5" y1="730.2158" y2="730.2158"/><polygon fill="#A80036" points="851.5,726.2158,841.5,730.2158,851.5,734.2158,847.5,730.2158" style="stroke: #A80036; stroke-width: 1.0;"/><line style="stroke: #A80036; stroke-width: 1.5;" x1="668.5" x2="606" y1="730.2158" y2="730.2158"/><polygon fill="#A80036" points="602,850.8037,606,860.8037,610,850.8037,606,854.8037" style="stroke: #A80036; stroke-width: 1.5;"/><line style="stroke: #A80036; stroke-width: 1.5;" x1="606" x2="606" y1="730.2158" y2="991.3916"/><line style="stroke: #A80036; stroke-width: 1.5;" x1="606" x2="755" y1="991.3916" y2="991.3916"/><line style="stroke: #A80036; stroke-width: 1.5;" x1="755" x2="755" y1="991.3916" y2="1149.002"/><polygon fill="#A80036" points="751,1139.002,755,1149.002,759,1139.002,755,1143.002" style="stroke: #A80036; stroke-width: 1.0;"/><line style="stroke: #A80036; stroke-width: 1.5;" x1="313.5" x2="313.5" y1="553.6641" y2="600.6055"/><polygon fill="#A80036" points="309.5,590.6055,313.5,600.6055,317.5,590.6055,313.5,594.6055" style="stroke: #A80036; stroke-width: 1.0;"/><line style="stroke: #A80036; stroke-width: 1.5;" x1="755" x2="755" y1="553.6641" y2="718.2158"/><polygon fill="#A80036" points="751,708.2158,755,718.2158,759,708.2158,755,712.2158" style="stroke: #A80036; stroke-width: 1.0;"/><line style="stroke: #A80036; stroke-width: 1.5;" x1="495.5" x2="495.5" y1="527.6641" y2="547.6641"/><polygon fill="#A80036" points="491.5,537.6641,495.5,547.6641,499.5,537.6641,495.5,541.6641" style="stroke: #A80036; stroke-width: 1.0;"/><line style="stroke: #A80036; stroke-width: 1.5;" x1="495.5" x2="495.5" y1="414.9209" y2="439.3984"/><polygon fill="#A80036" points="491.5,429.3984,495.5,439.3984,499.5,429.3984,495.5,433.3984" style="stroke: #A80036; stroke-width: 1.0;"/><line style="stroke: #A80036; stroke-width: 1.5;" x1="570" x2="935" y1="402.9209" y2="402.9209"/><polygon fill="#A80036" points="931,767.4268,935,777.4268,939,767.4268,935,771.4268" style="stroke: #A80036; stroke-width: 1.5;"/><line style="stroke: #A80036; stroke-width: 1.5;" x1="935" x2="935" y1="402.9209" y2="1187.002"/><line style="stroke: #A80036; stroke-width: 1.5;" x1="935" x2="507.5" y1="1187.002" y2="1187.002"/><polygon fill="#A80036" points="517.5,1183.002,507.5,1187.002,517.5,1191.002,513.5,1187.002" style="stroke: #A80036; stroke-width: 1.0;"/><line style="stroke: #A80036; stroke-width: 1.5;" x1="495.5" x2="495.5" y1="1155.002" y2="1175.002"/><polygon fill="#A80036" points="491.5,1165.002,495.5,1175.002,499.5,1165.002,495.5,1169.002" style="stroke: #A80036; stroke-width: 1.0;"/><line style="stroke: #A80036; stroke-width: 1.5;" x1="495.5" x2="495.5" y1="370.9209" y2="390.9209"/><polygon fill="#A80036" points="491.5,380.9209,495.5,390.9209,499.5,380.9209,495.5,384.9209" style="stroke: #A80036; stroke-width: 1.0;"/><line style="stroke: #A80036; stroke-width: 1.5;" x1="1067.5" x2="1067.5" y1="184.5205" y2="214.7002"/><polygon fill="#A80036" points="1063.5,204.7002,1067.5,214.7002,1071.5,204.7002,1067.5,208.7002" style="stroke: #A80036; stroke-width: 1.0;"/><line style="stroke: #A80036; stroke-width: 1.5;" x1="665" x2="495.5" y1="128.3877" y2="128.3877"/><line style="stroke: #A80036; stroke-width: 1.5;" x1="495.5" x2="495.5" y1="128.3877" y2="150.3877"/><polygon fill="#A80036" points="491.5,140.3877,495.5,150.3877,499.5,140.3877,495.5,144.3877" style="stroke: #A80036; stroke-width: 1.0;"/><line style="stroke: #A80036; stroke-width: 1.5;" x1="898" x2="1067.5" y1="128.3877" y2="128.3877"/><line style="stroke: #A80036; stroke-width: 1.5;" x1="1067.5" x2="1067.5" y1="128.3877" y2="150.3877"/><polygon fill="#A80036" points="1063.5,140.3877,1067.5,150.3877,1071.5,140.3877,1067.5,144.3877" style="stroke: #A80036; stroke-width: 1.0;"/><line style="stroke: #A80036; stroke-width: 1.5;" x1="495.5" x2="495.5" y1="1199.002" y2="1204.002"/><line style="stroke: #A80036; stroke-width: 1.5;" x1="495.5" x2="781.5" y1="1204.002" y2="1204.002"/><line style="stroke: #A80036; stroke-width: 1.5;" x1="781.5" x2="781.5" y1="1204.002" y2="1219.002"/><polygon fill="#A80036" points="777.5,1209.002,781.5,1219.002,785.5,1209.002,781.5,1213.002" style="stroke: #A80036; stroke-width: 1.0;"/><line style="stroke: #A80036; stroke-width: 1.5;" x1="781.5" x2="781.5" y1="91.9102" y2="116.3877"/><polygon fill="#A80036" points="777.5,106.3877,781.5,116.3877,785.5,106.3877,781.5,110.3877" style="stroke: #A80036; stroke-width: 1.0;"/><line style="stroke: #A80036; stroke-width: 1.5;" x1="923.5" x2="1188" y1="79.9102" y2="79.9102"/><polygon fill="#A80036" points="1184,607.25,1188,617.25,1192,607.25,1188,611.25" style="stroke: #A80036; stroke-width: 1.5;"/><line style="stroke: #A80036; stroke-width: 1.5;" x1="1188" x2="1188" y1="79.9102" y2="1231.002"/><line style="stroke: #A80036; stroke-width: 1.5;" x1="1188" x2="793.5" y1="1231.002" y2="1231.002"/><polygon fill="#A80036" points="803.5,1227.002,793.5,1231.002,803.5,1235.002,799.5,1231.002" style="stroke: #A80036; stroke-width: 1.0;"/><line style="stroke: #A80036; stroke-width: 1.5;" x1="781.5" x2="781.5" y1="35.7754" y2="67.9102"/><polygon fill="#A80036" points="777.5,57.9102,781.5,67.9102,785.5,57.9102,781.5,61.9102" style="stroke: #A80036; stroke-width: 1.0;"/><line style="stroke: #A80036; stroke-width: 1.5;" x1="781.5" x2="781.5" y1="1243.002" y2="1253.002"/><line style="stroke: #A80036; stroke-width: 1.5;" x1="781.5" x2="1212" y1="1253.002" y2="1253.002"/><polygon fill="#A80036" points="1208,608.7725,1212,598.7725,1216,608.7725,1212,604.7725" style="stroke: #A80036; stroke-width: 1.5;"/><line style="stroke: #A80036; stroke-width: 1.5;" x1="1212" x2="1212" y1="23.7754" y2="1253.002"/><line style="stroke: #A80036; stroke-width: 1.5;" x1="1212" x2="895.5" y1="23.7754" y2="23.7754"/><polygon fill="#A80036" points="905.5,19.7754,895.5,23.7754,905.5,27.7754,901.5,23.7754" style="stroke: #A80036; stroke-width: 1.0;"/><line style="stroke: #A80036; stroke-width: 1.5;" x1="667.5" x2="24" y1="23.7754" y2="23.7754"/><polygon fill="#A80036" points="20,594.7725,24,604.7725,28,594.7725,24,598.7725" style="stroke: #A80036; stroke-width: 1.5;"/><line style="stroke: #A80036; stroke-width: 1.5;" x1="24" x2="24" y1="23.7754" y2="1265.002"/><line style="stroke: #A80036; stroke-width: 1.5;" x1="24" x2="781.5" y1="1265.002" y2="1265.002"/><line style="stroke: #A80036; stroke-width: 1.5;" x1="781.5" x2="781.5" y1="1265.002" y2="1285.002"/><polygon fill="#A80036" points="777.5,1275.002,781.5,1285.002,785.5,1275.002,781.5,1279.002" style="stroke: #A80036; stroke-width: 1.0;"/><line style="stroke: #A80036; stroke-width: 1.5;" x1="781.5" x2="781.5" y1="1421.7451" y2="1449.1787"/><polygon fill="#A80036" points="777.5,1439.1787,781.5,1449.1787,785.5,1439.1787,781.5,1443.1787" style="stroke: #A80036; stroke-width: 1.0;"/><line style="stroke: #A80036; stroke-width: 1.5;" x1="781.5" x2="781.5" y1="1363.1348" y2="1387.6123"/><polygon fill="#A80036" points="777.5,1377.6123,781.5,1387.6123,785.5,1377.6123,781.5,1381.6123" style="stroke: #A80036; stroke-width: 1.0;"/><line style="stroke: #A80036; stroke-width: 1.5;" x1="851" x2="892" y1="1351.1348" y2="1351.1348"/><polygon fill="#A80036" points="888,1419.1787,892,1429.1787,896,1419.1787,892,1423.1787" style="stroke: #A80036; stroke-width: 1.5;"/><line style="stroke: #A80036; stroke-width: 1.5;" x1="892" x2="892" y1="1351.1348" y2="1491.1787"/><line style="stroke: #A80036; stroke-width: 1.5;" x1="892" x2="781.5" y1="1491.1787" y2="1491.1787"/><line style="stroke: #A80036; stroke-width: 1.5;" x1="781.5" x2="781.5" y1="1491.1787" y2="1511.1787"/><polygon fill="#A80036" points="777.5,1501.1787,781.5,1511.1787,785.5,1501.1787,781.5,1505.1787" style="stroke: #A80036; stroke-width: 1.0;"/><line style="stroke: #A80036; stroke-width: 1.5;" x1="781.5" x2="781.5" y1="1319.1348" y2="1339.1348"/><polygon fill="#A80036" points="777.5,1329.1348,781.5,1339.1348,785.5,1329.1348,781.5,1333.1348" style="stroke: #A80036; stroke-width: 1.0;"/><line style="stroke: #A80036; stroke-width: 1.5;" x1="781.5" x2="781.5" y1="1545.3115" y2="1565.3115"/><polygon fill="#A80036" points="777.5,1555.3115,781.5,1565.3115,785.5,1555.3115,781.5,1559.3115" style="stroke: #A80036; stroke-width: 1.0;"/></g></svg>