<?xml version="1.0" encoding="UTF-8" standalone="no"?><svg xmlns="http://www.w3.org/2000/svg" xmlns:xlink="http://www.w3.org/1999/xlink" contentScriptType="application/ecmascript" contentStyleType="text/css" height="60px" preserveAspectRatio="none" style="width:889px;height:60px;" version="1.1" viewBox="0 0 889 60" width="889px" zoomAndPan="magnify"><defs><filter height="300%" id="fqxph2s" width="300%" x="-1" y="-1"><feGaussianBlur result="blurOut" stdDeviation="2.0"/><feColorMatrix in="blurOut" result="blurOut2" type="matrix" values="0 0 0 0 0 0 0 0 0 0 0 0 0 0 0 0 0 0 .4 0"/><feOffset dx="4.0" dy="4.0" in="blurOut2" result="blurOut3"/><feBlend in="SourceGraphic" in2="blurOut3" mode="normal"/></filter></defs><g><ellipse cx="16" cy="30" fill="#000000" filter="url(#fqxph2s)" rx="10" ry="10" style="stroke: none; stroke-width: 1.0;"/><rect fill="#337788" filter="url(#fqxph2s)" height="43.5547" rx="12.5" ry="12.5" style="stroke: #FFFFFF; stroke-width: 1.5;" width="173" x="46.5" y="8"/><text fill="#FFFFFF" font-family="sans-serif" font-size="20" lengthAdjust="spacingAndGlyphs" textLength="153" x="56.5" y="37.3359">Types discovery</text><rect fill="#337788" filter="url(#fqxph2s)" height="43.5547" rx="12.5" ry="12.5" style="stroke: #FFFFFF; stroke-width: 1.5;" width="172" x="240" y="8"/><text fill="#FFFFFF" font-family="sans-serif" font-size="20" lengthAdjust="spacingAndGlyphs" textLength="152" x="250" y="37.3359">Beans discovery</text><rect fill="#888888" filter="url(#fqxph2s)" height="43.5547" rx="12.5" ry="12.5" style="stroke: #FFFFFF; stroke-width: 1.5;" width="210" x="432" y="8"/><text fill="#FFFFFF" font-family="sans-serif" font-size="20" lengthAdjust="spacingAndGlyphs" textLength="190" x="442" y="37.3359">Application running</text><rect fill="#337788" filter="url(#fqxph2s)" height="43.5547" rx="12.5" ry="12.5" style="stroke: #FFFFFF; stroke-width: 1.5;" width="180" x="662" y="8"/><text fill="#FFFFFF" font-family="sans-serif" font-size="20" lengthAdjust="spacingAndGlyphs" textLength="160" x="672" y="37.3359">Before shutdown</text><ellipse cx="872" cy="30" fill="none" filter="url(#fqxph2s)" rx="10" ry="10" style="stroke: #000000; stroke-width: 1.0;"/><ellipse cx="872.5" cy="30.5" fill="#000000" rx="6" ry="6" style="stroke: none; stroke-width: 1.0;"/><path d="M26.0547,30 C31.0677,30 36.0808,30 41.0939,30 " fill="none" style="stroke: #888888; stroke-width: 1.0;"/><polygon fill="#888888" points="46.1069,30,37.1069,26,41.1069,30,37.1069,34,46.1069,30" style="stroke: #888888; stroke-width: 1.0;"/><path d="M219.6992,30 C224.5783,30 229.4573,30 234.3363,30 " fill="none" style="stroke: #888888; stroke-width: 1.0;"/><polygon fill="#888888" points="239.6306,30,230.6306,26,234.6306,30,230.6306,34,239.6306,30" style="stroke: #888888; stroke-width: 1.0;"/><path d="M412.1309,30 C416.9069,30 421.683,30 426.4591,30 " fill="none" style="stroke: #888888; stroke-width: 1.0;"/><polygon fill="#888888" points="431.6417,30,422.6417,26,426.6417,30,422.6417,34,431.6417,30" style="stroke: #888888; stroke-width: 1.0;"/><path d="M642.4004,30 C647.1164,30 651.8325,30 656.5485,30 " fill="none" style="stroke: #888888; stroke-width: 1.0;"/><polygon fill="#888888" points="661.6659,30,652.6659,26,656.6659,30,652.6659,34,661.6659,30" style="stroke: #888888; stroke-width: 1.0;"/><path d="M842.4688,30 C847.2128,30 851.9568,30 856.7009,30 " fill="none" style="stroke: #888888; stroke-width: 1.0;"/><polygon fill="#888888" points="861.8486,30,852.8486,26,856.8486,30,852.8486,34,861.8486,30" style="stroke: #888888; stroke-width: 1.0;"/></g></svg>