<?xml version="1.0" encoding="UTF-8" standalone="no"?><svg xmlns="http://www.w3.org/2000/svg" xmlns:xlink="http://www.w3.org/1999/xlink" contentScriptType="application/ecmascript" contentStyleType="text/css" height="371px" preserveAspectRatio="none" style="width:1057px;height:371px;" version="1.1" viewBox="0 0 1057 371" width="1057px" zoomAndPan="magnify"><defs><filter height="300%" id="fza5lbk" width="300%" x="-1" y="-1"><feGaussianBlur result="blurOut" stdDeviation="2.0"/><feColorMatrix in="blurOut" result="blurOut2" type="matrix" values="0 0 0 0 0 0 0 0 0 0 0 0 0 0 0 0 0 0 .4 0"/><feOffset dx="4.0" dy="4.0" in="blurOut2" result="blurOut3"/><feBlend in="SourceGraphic" in2="blurOut3" mode="normal"/></filter></defs><g><!--class ProcessBean--><rect fill="#FEFECE" filter="url(#fza5lbk)" height="86.8652" style="stroke: #A80036; stroke-width: 1.5;" width="216" x="456.5" y="8"/><ellipse cx="518.25" cy="24" fill="#B4A7E5" rx="11" ry="11" style="stroke: #A80036; stroke-width: 1.0;"/><path d="M514.1777,19.7651 L514.1777,17.6069 L521.5571,17.6069 L521.5571,19.7651 L519.0918,19.7651 L519.0918,27.8418 L521.5571,27.8418 L521.5571,30 L514.1777,30 L514.1777,27.8418 L516.6431,27.8418 L516.6431,19.7651 Z "/><text fill="#000000" font-family="sans-serif" font-size="12" font-style="italic" lengthAdjust="spacingAndGlyphs" textLength="72" x="538.75" y="28.5352">ProcessBean</text><rect fill="#FFFFFF" height="16.1328" style="stroke: #000000; stroke-width: 1.0; stroke-dasharray: 2.0,2.0;" width="10" x="665.5" y="5"/><text fill="#000000" font-family="sans-serif" font-size="12" font-style="italic" lengthAdjust="spacingAndGlyphs" textLength="8" x="666.5" y="17.6016">X</text><line style="stroke: #A80036; stroke-width: 1.5;" x1="457.5" x2="671.5" y1="40" y2="40"/><line style="stroke: #A80036; stroke-width: 1.5;" x1="457.5" x2="671.5" y1="48" y2="48"/><ellipse cx="467.5" cy="59.9775" fill="#84BE84" rx="3" ry="3" style="stroke: #038048; stroke-width: 1.0;"/><text fill="#000000" font-family="sans-serif" font-size="11" lengthAdjust="spacingAndGlyphs" textLength="140" x="476.5" y="62.6348">Annotated getAnnotated()</text><ellipse cx="467.5" cy="72.9326" fill="#84BE84" rx="3" ry="3" style="stroke: #038048; stroke-width: 1.0;"/><text fill="#000000" font-family="sans-serif" font-size="11" lengthAdjust="spacingAndGlyphs" textLength="103" x="476.5" y="75.5898">Bean&lt;X&gt; getBean()</text><ellipse cx="467.5" cy="85.8877" fill="#84BE84" rx="3" ry="3" style="stroke: #038048; stroke-width: 1.0;"/><text fill="#000000" font-family="sans-serif" font-size="11" lengthAdjust="spacingAndGlyphs" textLength="190" x="476.5" y="88.5449">void addDefinitionError(Throwable)</text><!--class ProcessProducerMethod--><rect fill="#FEFECE" filter="url(#fza5lbk)" height="73.9102" style="stroke: #A80036; stroke-width: 1.5;" width="349" x="6" y="155"/><ellipse cx="92.75" cy="171" fill="#B4A7E5" rx="11" ry="11" style="stroke: #A80036; stroke-width: 1.0;"/><path d="M88.6777,166.7651 L88.6777,164.6069 L96.0571,164.6069 L96.0571,166.7651 L93.5918,166.7651 L93.5918,174.8418 L96.0571,174.8418 L96.0571,177 L88.6777,177 L88.6777,174.8418 L91.1431,174.8418 L91.1431,166.7651 Z "/><text fill="#000000" font-family="sans-serif" font-size="12" font-style="italic" lengthAdjust="spacingAndGlyphs" textLength="139" x="113.25" y="175.5352">ProcessProducerMethod</text><rect fill="#FFFFFF" height="16.1328" style="stroke: #000000; stroke-width: 1.0; stroke-dasharray: 2.0,2.0;" width="26" x="332" y="152"/><text fill="#000000" font-family="sans-serif" font-size="12" font-style="italic" lengthAdjust="spacingAndGlyphs" textLength="24" x="333" y="164.6016">T, X</text><line style="stroke: #A80036; stroke-width: 1.5;" x1="7" x2="354" y1="187" y2="187"/><line style="stroke: #A80036; stroke-width: 1.5;" x1="7" x2="354" y1="195" y2="195"/><ellipse cx="17" cy="206.9775" fill="#84BE84" rx="3" ry="3" style="stroke: #038048; stroke-width: 1.0;"/><text fill="#000000" font-family="sans-serif" font-size="11" lengthAdjust="spacingAndGlyphs" textLength="294" x="26" y="209.6348">AnnotatedMethod&lt;T&gt; getAnnotatedProducerMethod()</text><ellipse cx="17" cy="219.9326" fill="#84BE84" rx="3" ry="3" style="stroke: #038048; stroke-width: 1.0;"/><text fill="#000000" font-family="sans-serif" font-size="11" lengthAdjust="spacingAndGlyphs" textLength="323" x="26" y="222.5898">AnnotatedParameter&lt;T&gt; getAnnotatedDisposedParameter()</text><!--class ProcessProducerField--><rect fill="#FEFECE" filter="url(#fza5lbk)" height="73.9102" style="stroke: #A80036; stroke-width: 1.5;" width="349" x="390" y="155"/><ellipse cx="484.75" cy="171" fill="#B4A7E5" rx="11" ry="11" style="stroke: #A80036; stroke-width: 1.0;"/><path d="M480.6777,166.7651 L480.6777,164.6069 L488.0571,164.6069 L488.0571,166.7651 L485.5918,166.7651 L485.5918,174.8418 L488.0571,174.8418 L488.0571,177 L480.6777,177 L480.6777,174.8418 L483.1431,174.8418 L483.1431,166.7651 Z "/><text fill="#000000" font-family="sans-serif" font-size="12" font-style="italic" lengthAdjust="spacingAndGlyphs" textLength="123" x="505.25" y="175.5352">ProcessProducerField</text><rect fill="#FFFFFF" height="16.1328" style="stroke: #000000; stroke-width: 1.0; stroke-dasharray: 2.0,2.0;" width="26" x="716" y="152"/><text fill="#000000" font-family="sans-serif" font-size="12" font-style="italic" lengthAdjust="spacingAndGlyphs" textLength="24" x="717" y="164.6016">T, X</text><line style="stroke: #A80036; stroke-width: 1.5;" x1="391" x2="738" y1="187" y2="187"/><line style="stroke: #A80036; stroke-width: 1.5;" x1="391" x2="738" y1="195" y2="195"/><ellipse cx="401" cy="206.9775" fill="#84BE84" rx="3" ry="3" style="stroke: #038048; stroke-width: 1.0;"/><text fill="#000000" font-family="sans-serif" font-size="11" lengthAdjust="spacingAndGlyphs" textLength="264" x="410" y="209.6348">AnnotatedField&lt;T&gt; getAnnotatedProducerField()</text><ellipse cx="401" cy="219.9326" fill="#84BE84" rx="3" ry="3" style="stroke: #038048; stroke-width: 1.0;"/><text fill="#000000" font-family="sans-serif" font-size="11" lengthAdjust="spacingAndGlyphs" textLength="323" x="410" y="222.5898">AnnotatedParameter&lt;T&gt; getAnnotatedDisposedParameter()</text><!--class ProcessManagedBean--><rect fill="#FEFECE" filter="url(#fza5lbk)" height="60.9551" style="stroke: #A80036; stroke-width: 1.5;" width="274" x="774.5" y="161.5"/><ellipse cx="838.75" cy="177.5" fill="#B4A7E5" rx="11" ry="11" style="stroke: #A80036; stroke-width: 1.0;"/><path d="M834.6777,173.2651 L834.6777,171.1069 L842.0571,171.1069 L842.0571,173.2651 L839.5918,173.2651 L839.5918,181.3418 L842.0571,181.3418 L842.0571,183.5 L834.6777,183.5 L834.6777,181.3418 L837.1431,181.3418 L837.1431,173.2651 Z "/><text fill="#000000" font-family="sans-serif" font-size="12" font-style="italic" lengthAdjust="spacingAndGlyphs" textLength="125" x="859.25" y="182.0352">ProcessManagedBean</text><rect fill="#FFFFFF" height="16.1328" style="stroke: #000000; stroke-width: 1.0; stroke-dasharray: 2.0,2.0;" width="10" x="1041.5" y="158.5"/><text fill="#000000" font-family="sans-serif" font-size="12" font-style="italic" lengthAdjust="spacingAndGlyphs" textLength="8" x="1042.5" y="171.1016">X</text><line style="stroke: #A80036; stroke-width: 1.5;" x1="775.5" x2="1047.5" y1="193.5" y2="193.5"/><line style="stroke: #A80036; stroke-width: 1.5;" x1="775.5" x2="1047.5" y1="201.5" y2="201.5"/><ellipse cx="785.5" cy="213.4775" fill="#84BE84" rx="3" ry="3" style="stroke: #038048; stroke-width: 1.0;"/><text fill="#000000" font-family="sans-serif" font-size="11" lengthAdjust="spacingAndGlyphs" textLength="248" x="794.5" y="216.1348">AnnotatedType&lt;X&gt; getAnnotatedBeanClass();</text><!--class ProcessSessionBean--><rect fill="#FEFECE" filter="url(#fza5lbk)" height="73.9102" style="stroke: #A80036; stroke-width: 1.5;" width="241" x="791" y="289"/><ellipse cx="844.25" cy="305" fill="#B4A7E5" rx="11" ry="11" style="stroke: #A80036; stroke-width: 1.0;"/><path d="M840.1777,300.7651 L840.1777,298.6069 L847.5571,298.6069 L847.5571,300.7651 L845.0918,300.7651 L845.0918,308.8418 L847.5571,308.8418 L847.5571,311 L840.1777,311 L840.1777,308.8418 L842.6431,308.8418 L842.6431,300.7651 Z "/><text fill="#000000" font-family="sans-serif" font-size="12" font-style="italic" lengthAdjust="spacingAndGlyphs" textLength="114" x="864.75" y="309.5352">ProcessSessionBean</text><rect fill="#FFFFFF" height="16.1328" style="stroke: #000000; stroke-width: 1.0; stroke-dasharray: 2.0,2.0;" width="10" x="1025" y="286"/><text fill="#000000" font-family="sans-serif" font-size="12" font-style="italic" lengthAdjust="spacingAndGlyphs" textLength="8" x="1026" y="298.6016">X</text><line style="stroke: #A80036; stroke-width: 1.5;" x1="792" x2="1031" y1="321" y2="321"/><line style="stroke: #A80036; stroke-width: 1.5;" x1="792" x2="1031" y1="329" y2="329"/><ellipse cx="802" cy="340.9775" fill="#84BE84" rx="3" ry="3" style="stroke: #038048; stroke-width: 1.0;"/><text fill="#000000" font-family="sans-serif" font-size="11" lengthAdjust="spacingAndGlyphs" textLength="109" x="811" y="343.6348">String getEjbName();</text><ellipse cx="802" cy="353.9326" fill="#84BE84" rx="3" ry="3" style="stroke: #038048; stroke-width: 1.0;"/><text fill="#000000" font-family="sans-serif" font-size="11" lengthAdjust="spacingAndGlyphs" textLength="215" x="811" y="356.5898">SessionBeanType getSessionBeanType();</text><path d="M437.2759,98.0494 C386.7975,116.5188 329.5524,137.4639 281.9431,154.8834 " fill="none" style="stroke: #A80036; stroke-width: 1.0;"/><polygon fill="none" points="435.0693,91.403,456.2568,91.1046,439.8798,104.5506,435.0693,91.403" style="stroke: #A80036; stroke-width: 1.0;"/><path d="M564.5,115.2887 C564.5,128.8752 564.5,142.7868 564.5,154.9676 " fill="none" style="stroke: #A80036; stroke-width: 1.0;"/><polygon fill="none" points="557.5001,115.1849,564.5,95.1849,571.5001,115.1849,557.5001,115.1849" style="stroke: #A80036; stroke-width: 1.0;"/><path d="M691.1004,102.7604 C739.7734,122.4681 793.7707,144.3315 836.136,161.4852 " fill="none" style="stroke: #A80036; stroke-width: 1.0;"/><polygon fill="none" points="688.3018,109.1793,672.3909,95.1849,693.556,96.2027,688.3018,109.1793" style="stroke: #A80036; stroke-width: 1.0;"/><path d="M911.5,242.8161 C911.5,258.068 911.5,274.5101 911.5,288.7166 " fill="none" style="stroke: #A80036; stroke-width: 1.0;"/><polygon fill="none" points="904.5001,242.7423,911.5,222.7423,918.5001,242.7423,904.5001,242.7423" style="stroke: #A80036; stroke-width: 1.0;"/></g></svg>