<?xml version="1.0" encoding="UTF-8" standalone="no"?><svg xmlns="http://www.w3.org/2000/svg" xmlns:xlink="http://www.w3.org/1999/xlink" contentScriptType="application/ecmascript" contentStyleType="text/css" height="507px" preserveAspectRatio="none" style="width:413px;height:507px;" version="1.1" viewBox="0 0 413 507" width="413px" zoomAndPan="magnify"><defs><filter height="300%" id="fvsvt81" width="300%" x="-1" y="-1"><feGaussianBlur result="blurOut" stdDeviation="2.0"/><feColorMatrix in="blurOut" result="blurOut2" type="matrix" values="0 0 0 0 0 0 0 0 0 0 0 0 0 0 0 0 0 0 .4 0"/><feOffset dx="4.0" dy="4.0" in="blurOut2" result="blurOut3"/><feBlend in="SourceGraphic" in2="blurOut3" mode="normal"/></filter></defs><g><rect fill="#FEFECE" filter="url(#fvsvt81)" height="34.1328" rx="12.5" ry="12.5" style="stroke: #A80036; stroke-width: 1.5;" width="211" x="108.5" y="10"/><text fill="#000000" font-family="sans-serif" font-size="12" lengthAdjust="spacingAndGlyphs" textLength="21" x="118.5" y="31.6016">Fire</text><text fill="#000000" font-family="sans-serif" font-size="12" font-weight="bold" lengthAdjust="spacingAndGlyphs" textLength="131" x="143.5" y="31.6016">BeforeTypeDiscovery</text><text fill="#000000" font-family="sans-serif" font-size="12" lengthAdjust="spacingAndGlyphs" textLength="31" x="278.5" y="31.6016">event</text><rect fill="#D3D3D3" filter="url(#fvsvt81)" height="34.1328" rx="12.5" ry="12.5" style="stroke: #A80036; stroke-width: 1.5;" width="178" x="125" y="64.1328"/><text fill="#000000" font-family="sans-serif" font-size="12" lengthAdjust="spacingAndGlyphs" textLength="158" x="135" y="85.7344">Start type scanning process</text><rect fill="#D3D3D3" filter="url(#fvsvt81)" height="34.1328" rx="12.5" ry="12.5" style="stroke: #A80036; stroke-width: 1.5;" width="278" x="75" y="174.4004"/><text fill="#000000" font-family="sans-serif" font-size="12" lengthAdjust="spacingAndGlyphs" textLength="62" x="85" y="196.002">Creates an</text><text fill="#000000" font-family="sans-serif" font-size="12" font-weight="bold" lengthAdjust="spacingAndGlyphs" textLength="95" x="151" y="196.002">AnnotatedType</text><text fill="#000000" font-family="sans-serif" font-size="12" lengthAdjust="spacingAndGlyphs" textLength="93" x="250" y="196.002">from type found</text><rect fill="#FEFECE" filter="url(#fvsvt81)" height="34.1328" rx="12.5" ry="12.5" style="stroke: #A80036; stroke-width: 1.5;" width="356" x="36" y="228.5332"/><text fill="#000000" font-family="sans-serif" font-size="12" lengthAdjust="spacingAndGlyphs" textLength="21" x="46" y="250.1348">Fire</text><text fill="#000000" font-family="sans-serif" font-size="12" font-weight="bold" lengthAdjust="spacingAndGlyphs" textLength="142" x="71" y="250.1348">ProcessAnnotatedType</text><text fill="#000000" font-family="sans-serif" font-size="12" lengthAdjust="spacingAndGlyphs" textLength="165" x="217" y="250.1348">(PAT) for the AnnotatedType</text><rect fill="#D3D3D3" filter="url(#fvsvt81)" height="34.1328" rx="12.5" ry="12.5" style="stroke: #A80036; stroke-width: 1.5;" width="320" x="54" y="346.1436"/><text fill="#000000" font-family="sans-serif" font-size="12" lengthAdjust="spacingAndGlyphs" textLength="300" x="64" y="367.7451">add PAT.getAnnotatedType() to discovered type set</text><polygon fill="#D3D3D3" filter="url(#fvsvt81)" points="151,297.666,277,297.666,289,309.666,277,321.666,151,321.666,139,309.666,151,297.666" style="stroke: #A80036; stroke-width: 1.5;"/><text fill="#000000" font-family="sans-serif" font-size="11" lengthAdjust="spacingAndGlyphs" textLength="18" x="218" y="332.3008">yes</text><text fill="#000000" font-family="sans-serif" font-size="11" lengthAdjust="spacingAndGlyphs" textLength="126" x="151" y="313.8232">PAT.veto() wasn't called</text><polygon fill="#D3D3D3" filter="url(#fvsvt81)" points="214,400.2764,226,412.2764,214,424.2764,202,412.2764,214,400.2764" style="stroke: #A80036; stroke-width: 1.5;"/><polygon fill="#D3D3D3" filter="url(#fvsvt81)" points="92,118.2656,336,118.2656,348,130.2656,336,142.2656,92,142.2656,80,130.2656,92,118.2656" style="stroke: #A80036; stroke-width: 1.5;"/><text fill="#000000" font-family="sans-serif" font-size="11" lengthAdjust="spacingAndGlyphs" textLength="18" x="218" y="152.9004">yes</text><text fill="#000000" font-family="sans-serif" font-size="11" lengthAdjust="spacingAndGlyphs" textLength="244" x="92" y="134.4229">Does the scanning process found a new type?</text><text fill="#000000" font-family="sans-serif" font-size="11" lengthAdjust="spacingAndGlyphs" textLength="14" x="66" y="127.9453">no</text><rect fill="#FEFECE" filter="url(#fvsvt81)" height="34.1328" rx="12.5" ry="12.5" style="stroke: #A80036; stroke-width: 1.5;" width="167" x="130.5" y="466.2764"/><text fill="#000000" font-family="sans-serif" font-size="12" lengthAdjust="spacingAndGlyphs" textLength="21" x="140.5" y="487.8779">Fire</text><text fill="#000000" font-family="sans-serif" font-size="12" font-weight="bold" lengthAdjust="spacingAndGlyphs" textLength="122" x="165.5" y="487.8779">AfterTypeDiscovery</text><line style="stroke: #A80036; stroke-width: 1.5;" x1="214" x2="214" y1="44.1328" y2="64.1328"/><polygon fill="#A80036" points="210,54.1328,214,64.1328,218,54.1328,214,58.1328" style="stroke: #A80036; stroke-width: 1.0;"/><line style="stroke: #A80036; stroke-width: 1.5;" x1="214" x2="214" y1="208.5332" y2="228.5332"/><polygon fill="#A80036" points="210,218.5332,214,228.5332,218,218.5332,214,222.5332" style="stroke: #A80036; stroke-width: 1.0;"/><line style="stroke: #A80036; stroke-width: 1.5;" x1="214" x2="214" y1="321.666" y2="346.1436"/><polygon fill="#A80036" points="210,336.1436,214,346.1436,218,336.1436,214,340.1436" style="stroke: #A80036; stroke-width: 1.0;"/><line style="stroke: #A80036; stroke-width: 1.5;" x1="289" x2="384" y1="309.666" y2="309.666"/><polygon fill="#A80036" points="380,353.21,384,363.21,388,353.21,384,357.21" style="stroke: #A80036; stroke-width: 1.5;"/><line style="stroke: #A80036; stroke-width: 1.5;" x1="384" x2="384" y1="309.666" y2="412.2764"/><line style="stroke: #A80036; stroke-width: 1.5;" x1="384" x2="226" y1="412.2764" y2="412.2764"/><polygon fill="#A80036" points="236,408.2764,226,412.2764,236,416.2764,232,412.2764" style="stroke: #A80036; stroke-width: 1.0;"/><line style="stroke: #A80036; stroke-width: 1.5;" x1="214" x2="214" y1="380.2764" y2="400.2764"/><polygon fill="#A80036" points="210,390.2764,214,400.2764,218,390.2764,214,394.2764" style="stroke: #A80036; stroke-width: 1.0;"/><line style="stroke: #A80036; stroke-width: 1.5;" x1="214" x2="214" y1="262.666" y2="297.666"/><polygon fill="#A80036" points="210,287.666,214,297.666,218,287.666,214,291.666" style="stroke: #A80036; stroke-width: 1.0;"/><line style="stroke: #A80036; stroke-width: 1.5;" x1="214" x2="214" y1="142.2656" y2="174.4004"/><polygon fill="#A80036" points="210,164.4004,214,174.4004,218,164.4004,214,168.4004" style="stroke: #A80036; stroke-width: 1.0;"/><line style="stroke: #A80036; stroke-width: 1.5;" x1="214" x2="214" y1="424.2764" y2="434.2764"/><line style="stroke: #A80036; stroke-width: 1.5;" x1="214" x2="408" y1="434.2764" y2="434.2764"/><polygon fill="#A80036" points="404,285.5996,408,275.5996,412,285.5996,408,281.5996" style="stroke: #A80036; stroke-width: 1.5;"/><line style="stroke: #A80036; stroke-width: 1.5;" x1="408" x2="408" y1="130.2656" y2="434.2764"/><line style="stroke: #A80036; stroke-width: 1.5;" x1="408" x2="348" y1="130.2656" y2="130.2656"/><polygon fill="#A80036" points="358,126.2656,348,130.2656,358,134.2656,354,130.2656" style="stroke: #A80036; stroke-width: 1.0;"/><line style="stroke: #A80036; stroke-width: 1.5;" x1="80" x2="24" y1="130.2656" y2="130.2656"/><polygon fill="#A80036" points="20,271.5996,24,281.5996,28,271.5996,24,275.5996" style="stroke: #A80036; stroke-width: 1.5;"/><line style="stroke: #A80036; stroke-width: 1.5;" x1="24" x2="24" y1="130.2656" y2="446.2764"/><line style="stroke: #A80036; stroke-width: 1.5;" x1="24" x2="214" y1="446.2764" y2="446.2764"/><line style="stroke: #A80036; stroke-width: 1.5;" x1="214" x2="214" y1="446.2764" y2="466.2764"/><polygon fill="#A80036" points="210,456.2764,214,466.2764,218,456.2764,214,460.2764" style="stroke: #A80036; stroke-width: 1.0;"/><line style="stroke: #A80036; stroke-width: 1.5;" x1="214" x2="214" y1="98.2656" y2="118.2656"/><polygon fill="#A80036" points="210,108.2656,214,118.2656,218,108.2656,214,112.2656" style="stroke: #A80036; stroke-width: 1.0;"/></g></svg>